<svg class="border shadow-md" viewBox="0 0 396 528" style="width: 396px; height: 528px;"
  xmlns="http://www.w3.org/2000/svg" preserveAspectRatio="none">
  <rect class="bg" id="bg" x="0" y="0" width="396" height="528" fill="#ffffff"></rect>
  <path
    d="M 0 -88 L 0 -88.00
  L 66.00 -44.00
  L 198 -88.00 L 198 -88.00
  L 264.00 -44.00
  L 396 -88.00 L 396 -88.00
  L 532.00 -44.00
  L 594 -88.00  V 528.00 H 0 V -88.00 Z"
    fill="#0098FF"></path>
  <path
    d="M 0 0 L 0 0.00
  L 94.00 44.00
  L 198 0.00 L 198 0.00
  L 274.00 44.00
  L 396 0.00 L 396 0.00
  L 487.00 72.00
  L 594 0.00  V 528.00 H 0 V 0.00 Z"
    fill="#1fa4ff"></path>
  <path
    d="M 0 88 L 0 88.00
  L 66.00 161.00
  L 198 88.00 L 198 88.00
  L 272.00 148.00
  L 396 88.00 L 396 88.00
  L 520.00 132.00
  L 594 88.00  V 528.00 H 0 V 88.00 Z"
    fill="#3eb0ff"></path>
  <path
    d="M 0 176 L 0 176.00
  L 79.00 220.00
  L 198 176.00 L 198 176.00
  L 264.00 259.00
  L 396 176.00 L 396 176.00
  L 485.00 246.00
  L 594 176.00  V 528.00 H 0 V 176.00 Z"
    fill="#5dbcff"></path>
  <path
    d="M 0 264 L 0 264.00
  L 103.00 308.00
  L 198 264.00 L 198 264.00
  L 330.00 308.00
  L 396 264.00 L 396 264.00
  L 462.00 308.00
  L 594 264.00  V 528.00 H 0 V 264.00 Z"
    fill="#7cc8ff"></path>
  <path
    d="M 0 352 L 0 352.00
  L 66.00 408.00
  L 198 352.00 L 198 352.00
  L 276.00 412.00
  L 396 352.00 L 396 352.00
  L 475.00 409.00
  L 594 352.00  V 528.00 H 0 V 352.00 Z"
    fill="#9bd4ff"></path>
  <path
    d="M 0 440 L 0 440.00
  L 66.00 484.00
  L 198 440.00 L 198 440.00
  L 264.00 484.00
  L 396 440.00 L 396 440.00
  L 462.00 484.00
  L 594 440.00  V 528.00 H 0 V 440.00 Z"
    fill="#bae0ff"></path>
</svg>